<?xml version="1.0" encoding="UTF-8"?>
<svg version="1.1" xmlns="http://www.w3.org/2000/svg" width="512" height="512">
  <path
    d="M0 0 C1.26065223 -0.00573832 1.26065223 -0.00573832 2.54677218 -0.01159257 C5.33769918 -0.02183724 8.12841716 -0.01794676 10.9193573 -0.01396179 C12.93074736 -0.01831303 14.94213577 -0.02349754 16.95352173 -0.02944946 C22.39992057 -0.04280725 27.84624988 -0.04342165 33.29266191 -0.04088616 C37.84759472 -0.03981414 42.4025136 -0.04470579 46.95744342 -0.04949158 C57.70843058 -0.0605759 68.45938281 -0.06103039 79.21037292 -0.05497742 C90.28198524 -0.04893951 101.35347042 -0.06124651 112.42506105 -0.08254749 C121.94807709 -0.1001919 131.47105276 -0.10616031 140.99408454 -0.10290974 C146.67404781 -0.10110108 152.3539204 -0.10369128 158.03386879 -0.11762428 C163.37816366 -0.13024402 168.7222611 -0.12821935 174.06655312 -0.11521339 C176.02077808 -0.11285699 177.97501711 -0.1155485 179.92922592 -0.12383652 C196.97163048 -0.1908672 211.93143537 1.374558 225.05290222 13.57319641 C234.95828426 24.39440453 239.28267783 37.87772057 239.31834412 52.34823608 C239.3228008 53.36532053 239.3228008 53.36532053 239.32734752 54.40295213 C239.33596201 56.65640901 239.33753658 58.90981231 239.33903503 61.1632843 C239.34366845 62.78690197 239.34869381 64.41051856 239.3540802 66.03413391 C239.36715803 70.43327905 239.37364041 74.83240896 239.37809086 79.23157048 C239.38102978 81.98574669 239.38513616 84.73991881 239.38959503 87.49409294 C239.4032594 96.1278424 239.41293057 104.76158242 239.41679692 113.39534193 C239.42127161 123.33051073 239.43879657 133.26554153 239.46779752 143.20066839 C239.48948547 150.90033051 239.49950503 158.59995401 239.50083804 166.29964632 C239.50188122 170.88872276 239.50768423 175.47766931 239.52565765 180.06671333 C239.54226129 184.38994441 239.54423491 188.71294967 239.53551865 193.03620148 C239.53475473 194.61225176 239.53900446 196.18831481 239.5489769 197.76433372 C239.65499292 215.58118574 236.89699555 230.90332469 224.30290222 244.26069641 C214.31092588 253.66490944 202.09022216 257.43806805 188.54695129 257.38095093 C187.79861822 257.38180535 187.05028514 257.38265978 186.2792753 257.38354009 C183.78273171 257.38518146 181.28625598 257.37969559 178.78971863 257.3742218 C176.99575299 257.37393961 175.20178723 257.37409828 173.40782166 257.37466431 C168.54468555 257.37495105 163.68157414 257.36907418 158.81844378 257.36209035 C153.73354245 257.35583635 148.64864054 257.35525139 143.56373596 257.35406494 C133.93787041 257.35095767 124.31201622 257.3427524 114.68615568 257.33271545 C103.72612987 257.32153558 92.76610352 257.31603914 81.80607343 257.31102002 C59.26334339 257.3005693 36.72062344 257.28298153 14.17790222 257.26069641 C15.57419576 253.66660456 17.18545371 250.29935783 18.99601746 246.89326477 C23.71360276 237.9321412 28.23131737 228.0902049 28.15055847 217.76460266 C29.8099478 212.10501245 34.31572405 210.21818109 39.17790222 207.26069641 C40.90936998 206.14245007 42.63984992 205.02267264 44.36930847 203.90132141 C46.15835795 202.76903251 47.94876095 201.63887981 49.74040222 200.51069641 C51.68080863 199.28200692 53.62090964 198.05283502 55.56071472 196.82319641 C56.51107605 196.22120422 57.46143738 195.61921204 58.44059753 194.99897766 C64.38425539 191.22455348 70.29364852 187.3986347 76.18864441 183.54878235 C78.20873635 182.24073067 80.24266817 180.95661134 82.27946472 179.67475891 C95.30491461 171.39318485 103.50072924 162.64785516 108.02555847 147.40522766 C110.62270616 135.48586774 108.62241136 123.14575196 102.63883972 112.53022766 C95.48392613 101.7325156 85.74070481 94.70244699 73.30290222 90.88569641 C53.95505308 87.04016118 39.72887732 95.12592553 24.17790222 105.26069641 C22.60515875 106.27658958 21.0322415 107.29221379 19.45915222 108.30757141 C17.84437338 109.35414482 16.22979278 110.40102416 14.61540222 111.44819641 C13.80409851 111.97284485 12.9927948 112.49749329 12.15690613 113.03804016 C7.85203177 115.83218486 3.57760922 118.66081845 -0.65286255 121.56677246 C-2.32595301 122.71111476 -4.00684079 123.84291567 -5.69099426 124.97090149 C-7.86174812 126.42781221 -10.01833283 127.90611771 -12.15827942 129.40791321 C-13.15464417 130.0696051 -14.15100891 130.731297 -15.17756653 131.41304016 C-16.05050354 132.01108459 -16.92344055 132.60912903 -17.8228302 133.22529602 C-21.02081831 134.32929826 -21.7264799 134.23724922 -24.84939575 133.42697144 C-29.99223888 132.18479765 -35.15068035 131.38833604 -40.38459778 130.63569641 C-41.29789856 130.50163391 -42.21119934 130.36757141 -43.1521759 130.22944641 C-45.37507009 129.90357711 -47.59835443 129.58071023 -49.82209778 129.26069641 C-49.91510519 117.73347208 -49.98601819 106.20633821 -50.02934647 94.67881393 C-50.05015027 89.32511311 -50.07833533 83.97167053 -50.12385559 78.61811829 C-50.16757151 73.4439213 -50.19128898 68.26997147 -50.20160675 63.09560394 C-50.20895214 61.12939315 -50.22329505 59.16319466 -50.24501801 57.19709015 C-50.42158264 40.54210939 -48.39829591 26.88659319 -36.79084778 14.00679016 C-26.4541644 4.13825368 -14.05470896 -0.06924119 0 0 Z "
    fill="#544a88" transform="translate(257.8220977783203,30.739303588867188)" />
  <path
    d="M0 0 C3.81152934 2.14164517 5.82806844 4.37738236 7.75 8.375 C9.22545874 13.74129809 8.90527537 18.18274571 6.75 23.375 C3.38308684 27.11335198 -0.29855523 29.96964275 -4.5 32.6875 C-5.44480225 33.30830444 -5.44480225 33.30830444 -6.40869141 33.94165039 C-14.94071079 39.52335466 -23.54919922 44.98923733 -32.14453125 50.47265625 C-35.79507046 52.80270361 -39.44076571 55.13948913 -43.07421875 57.49609375 C-43.7911792 57.96072021 -44.50813965 58.42534668 -45.24682617 58.90405273 C-46.60619256 59.78978573 -47.96194773 60.68109005 -49.3137207 61.57836914 C-52.74762659 63.84136383 -56.19637354 65.9092549 -59.84375 67.8125 C-64.02221034 70.04918148 -67.70732103 72.19735268 -71.25 75.375 C-72.61846057 79.89611658 -71.87953578 83.75840432 -71.25 88.375 C-71.79783329 101.3038656 -77.11088975 113.15550496 -86.08984375 122.48046875 C-96.97571303 132.02775012 -109.63759641 135.48277046 -123.77734375 135.55078125 C-125.63998535 135.57397212 -127.50261561 135.59808916 -129.36523438 135.62304688 C-132.2792939 135.65816194 -135.19293219 135.68752498 -138.10717773 135.70092773 C-140.93523999 135.7164521 -143.7621013 135.75667397 -146.58984375 135.80078125 C-147.45359116 135.79887283 -148.31733856 135.79696442 -149.20726013 135.79499817 C-155.02726018 135.91190435 -158.52902373 136.88967788 -163.25 140.375 C-165.89936163 144.01065779 -166.62604058 146.54471 -166.63526917 151.01391602 C-166.64491699 152.13791306 -166.65456482 153.2619101 -166.664505 154.41996765 C-166.65992783 155.64391739 -166.65535065 156.86786713 -166.65063477 158.12890625 C-166.65761383 159.4254866 -166.6645929 160.72206696 -166.67178345 162.05793762 C-166.68687896 164.87459213 -166.69267227 167.69105731 -166.69125557 170.50775146 C-166.6892162 174.97288462 -166.70883088 179.43776521 -166.73143005 183.90283203 C-166.77239522 192.58809357 -166.79098956 201.27333524 -166.80760193 209.95867157 C-166.82995191 220.98441647 -166.86380302 232.01010228 -166.91480106 243.0357523 C-166.93457429 247.46199246 -166.94429286 251.88810093 -166.94575322 256.31438351 C-166.94785808 258.41442601 -166.95444588 260.51439989 -166.96292114 262.61442566 C-166.97306586 265.15819959 -166.97640061 267.70201536 -166.97102356 270.24580383 C-167.06745256 286.43812434 -169.63635612 301.53053194 -181.25 313.63671875 C-192.53851587 323.44802649 -205.25642856 327.50870376 -219.94140625 327.578125 C-220.88249741 327.58382507 -221.82358856 327.58952515 -222.79319763 327.59539795 C-224.7844023 327.60482923 -226.77562244 327.61137448 -228.7668457 327.61523438 C-231.77779304 327.62488872 -234.78804228 327.65590884 -237.79882812 327.6875 C-254.59026811 327.78140337 -269.70573068 326.02547823 -282.62890625 314.125 C-291.74008402 304.28931894 -296.39566705 293.23757971 -296.40390015 279.93312073 C-296.4082824 279.07316228 -296.41266465 278.21320384 -296.4171797 277.32718605 C-296.43055385 274.44020839 -296.43674355 271.55326125 -296.44287109 268.66625977 C-296.45077335 266.5981177 -296.45904238 264.52997701 -296.46765137 262.46183777 C-296.49386421 255.66337397 -296.50918151 248.86490406 -296.5234375 242.06640625 C-296.52879809 239.72397292 -296.5341756 237.38153962 -296.53956985 235.03910637 C-296.56120037 225.29138631 -296.57993496 215.5436679 -296.59119225 205.79592991 C-296.60741654 191.83995458 -296.64055575 177.88425832 -296.69759309 163.92838818 C-296.73635109 154.10907732 -296.75583208 144.28984091 -296.76111281 134.47045559 C-296.76475912 128.60976525 -296.77670361 122.74937262 -296.80921555 116.88876534 C-296.83939786 111.36881727 -296.84557164 105.84934544 -296.83383179 100.32933235 C-296.83361188 98.31101197 -296.84184757 96.29266883 -296.85948563 94.27442551 C-296.99935542 77.33812494 -294.34473817 64.34374147 -282.4453125 51.4140625 C-270.68869501 40.24283675 -256.8623693 38.0734958 -241.30761719 38.08447266 C-239.91852969 38.07847734 -238.5294455 38.07166951 -237.1403656 38.06411743 C-233.39012721 38.04655135 -229.63998027 38.04176602 -225.8897047 38.04048586 C-223.53988651 38.03905825 -221.19009112 38.03477717 -218.84027863 38.02949142 C-210.62315918 38.01102158 -202.40610436 38.0028169 -194.18896484 38.00439453 C-186.56074537 38.00559481 -178.93280933 37.98450696 -171.30466151 37.9529072 C-164.72937098 37.92665132 -158.15417248 37.91603113 -151.57883 37.91730535 C-147.66325847 37.91781229 -143.74793909 37.91227894 -139.83242035 37.89094925 C-136.1451788 37.87140904 -132.45842588 37.87154835 -128.77116585 37.88598251 C-126.79490377 37.8890292 -124.8186408 37.87250502 -122.842453 37.85510254 C-110.79321506 37.93877257 -100.44620861 40.94638269 -90.25 47.375 C-89.31285156 46.7665625 -88.37570313 46.158125 -87.41015625 45.53125 C-77.46277886 39.08052648 -67.48449568 32.6791377 -57.49462891 26.29443359 C-51.3786191 22.38364869 -45.27521842 18.45464849 -39.1875 14.5 C-33.60590387 10.88071557 -28.00460341 7.29421135 -22.375 3.75 C-21.70202881 3.32348145 -21.02905762 2.89696289 -20.33569336 2.45751953 C-13.59160293 -1.76679127 -7.44156657 -3.35218232 0 0 Z "
    fill="#544a88" transform="translate(328.25,152.625)" />
  <path
    d="M0 0 C15.81600705 12.07899319 25.32376116 28.75414391 28.4375 48.33203125 C30.76333307 68.64153786 25.90000494 88.18627934 13.24462891 104.3125 C0.76765157 119.29376904 -16.51000581 128.69901763 -35.875 131.01953125 C-57.61534292 132.21582525 -76.73794055 126.35721887 -93.5625 112.26953125 C-106.58160949 100.18035815 -115.37282046 82.83748166 -116.2578125 65.0625 C-116.84397805 44.01772707 -112.5298312 25.85256886 -98.30078125 9.54296875 C-71.63938942 -18.19174803 -31.37380469 -21.61211818 0 0 Z "
    fill="#544a88" transform="translate(147.875,44.98046875)" />
</svg>
