<?xml version="1.0" encoding="UTF-8"?>
<svg version="1.1" xmlns="http://www.w3.org/2000/svg" width="512" height="512">
<path d="M0 0 C1.33958216 1.11755197 2.67370002 2.24171665 4 3.375 C5.010625 4.138125 6.02125 4.90125 7.0625 5.6875 C20.384795 17.87598266 30.07407543 36.06333179 31.17456055 54.26164246 C31.23007094 57.53167258 31.2251916 60.79605629 31.1953125 64.06640625 C31.19329834 65.1188855 31.19128418 66.17136475 31.18920898 67.2557373 C31.17882395 71.14970318 31.15090199 75.04360643 31.125 78.9375 C31.08375 87.661875 31.0425 96.38625 31 105.375 C56.08 105.375 81.16 105.375 107 105.375 C110.44726181 124.90948357 110.44726181 124.90948357 111.42375183 131.78140259 C111.54065457 132.58824316 111.65755731 133.39508374 111.77800256 134.22637403 C112.15824628 136.85578746 112.53463599 139.48573543 112.91088867 142.11572266 C113.18700013 144.03165372 113.46330705 145.94755662 113.73979187 147.86343384 C114.63687089 154.08802198 115.52788629 160.31347058 116.41796875 166.5390625 C116.57048418 167.60515102 116.72299962 168.67123954 116.88013673 169.76963377 C118.32287447 179.85513988 119.76350769 189.94094419 121.19863415 200.02753639 C123.02148793 212.8384246 124.85508417 225.64767026 126.70358866 238.45488322 C128.01004948 247.51293627 129.30404434 256.5727193 130.58908826 265.6338352 C131.35352693 271.02174582 132.12312027 276.40879118 132.90620995 281.79402542 C141.36715059 340.05710571 141.36715059 340.05710571 134 356.375 C133.57589844 357.32246094 133.15179688 358.26992188 132.71484375 359.24609375 C125.19503412 374.34855264 112.56644457 384.43879977 97 390.375 C90.43501277 392.37019346 84.44713244 392.66267921 77.60945129 392.64242554 C76.48064425 392.64695665 75.3518372 392.65148776 74.18882388 392.65615618 C70.41596111 392.66879066 66.64324288 392.66718039 62.87036133 392.66552734 C60.1612392 392.67042815 57.45212713 392.67826263 54.74301147 392.68588257 C48.15303413 392.70246219 41.56309257 392.70799076 34.97309611 392.70910732 C29.61298123 392.71005934 24.25287811 392.71417728 18.89276695 392.72050858 C3.67738442 392.73811349 -11.53796995 392.74734874 -26.75336274 392.74584763 C-27.57282188 392.74576772 -28.39228103 392.7456878 -29.23657227 392.74560547 C-30.05703851 392.74552371 -30.87750475 392.74544195 -31.72283361 392.74535771 C-45.01200307 392.74454525 -58.30105908 392.76367478 -71.59019574 392.7918822 C-85.25349978 392.82065366 -98.91674858 392.83442012 -112.58008367 392.83269465 C-120.24369146 392.83203217 -127.90718032 392.83746186 -135.57076073 392.85905075 C-142.09709984 392.87731886 -148.62326614 392.88156403 -155.14961984 392.8680319 C-158.47494456 392.86153 -161.79966963 392.86348352 -165.12500572 392.8787384 C-186.48785915 392.97036223 -203.52475097 391.11451687 -219.71875 375.71484375 C-231.45526204 363.6768802 -237.41055747 349.50973827 -237.30186462 332.74479675 C-237.29729718 331.737977 -237.29272974 330.73115725 -237.28802389 329.69382781 C-237.13579502 319.13860953 -235.76611752 308.87640389 -234.17016602 298.45825195 C-233.8649576 296.38276594 -233.56121077 294.30706456 -233.25878906 292.23117065 C-232.44508325 286.6743768 -231.61119509 281.12079213 -230.7731297 275.56762719 C-229.89563037 269.72970471 -229.03693665 263.8890149 -228.17601013 258.04862976 C-226.73161381 248.26768261 -225.27534086 238.48856915 -223.81030273 228.71069336 C-221.74307691 214.91364212 -219.6972387 201.11348171 -217.6557399 187.31260359 C-214.91992562 168.82572453 -212.17826389 150.33967013 -209.41155243 131.85738754 C-209.11297854 129.86118993 -208.81506194 127.86489388 -208.51784325 125.86849403 C-208.11283002 123.14925053 -207.70533898 120.43039014 -207.2971344 117.71162415 C-207.17942784 116.91797417 -207.06172129 116.1243242 -206.94044787 115.30662423 C-206.43161004 111.93472449 -205.82820248 108.68780993 -205 105.375 C-178.6 105.375 -152.2 105.375 -125 105.375 C-125.15741275 88.32395429 -125.15741275 88.32395429 -125.36035156 71.2734375 C-125.5412907 48.6498236 -122.14351784 30.09770579 -107 12.375 C-105.8553125 10.8590625 -105.8553125 10.8590625 -104.6875 9.3125 C-78.37887179 -19.44344247 -30.93491825 -23.70472033 0 0 Z M-77 40.375 C-86.11845125 54.24185635 -85.26368545 69.12410532 -85.125 85.0625 C-85.08375 91.765625 -85.0425 98.46875 -85 105.375 C-59.92 105.375 -34.84 105.375 -9 105.375 C-8.95875 98.671875 -8.9175 91.96875 -8.875 85.0625 C-8.85679199 82.96994873 -8.83858398 80.87739746 -8.81982422 78.72143555 C-8.73931115 63.29779345 -9.18814068 48.64018125 -20.125 36.5 C-28.82156975 28.5443936 -39.36085181 25.78872623 -50.78515625 26.04296875 C-61.47557098 26.62792051 -70.18641617 32.36115852 -77 40.375 Z M-170 146.375 C-170.41624731 148.62800353 -170.77296327 150.89201069 -171.10731506 153.15861511 C-171.21434185 153.87646394 -171.32136864 154.59431276 -171.43163866 155.33391458 C-171.79186683 157.75743217 -172.1460411 160.1817962 -172.50024414 162.60620117 C-172.75621407 164.33735482 -173.01252391 166.06845824 -173.26914978 167.79951477 C-173.96747811 172.51864205 -174.66026472 177.23856693 -175.35155034 181.95873046 C-175.78403649 184.91032671 -176.2176306 187.86175802 -176.65160942 190.81313515 C-178.16682457 201.11850542 -179.67732151 211.42455579 -181.18383789 221.73120117 C-182.58558327 231.32013961 -183.9979164 240.90747785 -185.41520983 250.49412936 C-186.63256732 258.73189805 -187.8421305 266.9707876 -189.0458135 275.21056539 C-189.76429862 280.1279136 -190.48590138 285.04475328 -191.21547127 289.9604702 C-191.90317561 294.59581887 -192.5810972 299.2324988 -193.25185585 303.8703289 C-193.49830354 305.56298525 -193.74810455 307.25515768 -194.00169754 308.94675827 C-197.42161263 326.71130263 -197.42161263 326.71130263 -193.4375 343.5 C-188.98320669 349.1386113 -184.13426051 351.51213863 -177 352.375 C-173.55008536 352.51533873 -170.10392649 352.51422875 -166.65151978 352.50871277 C-165.6107319 352.51097833 -164.56994403 352.51324388 -163.49761713 352.51557809 C-160.01093268 352.52190703 -156.52428721 352.52108943 -153.03759766 352.52026367 C-150.53740895 352.52325583 -148.03722071 352.52665849 -145.53703308 352.53044128 C-139.45112025 352.53836125 -133.36522274 352.54149566 -127.27930619 352.54205366 C-122.33148039 352.54252926 -117.38365777 352.54458619 -112.43583298 352.54775429 C-98.40073581 352.55655779 -84.36564628 352.56117409 -70.33054633 352.56042381 C-69.57435667 352.56038386 -68.818167 352.5603439 -68.0390625 352.56030273 C-67.28194723 352.56026185 -66.52483195 352.56022097 -65.74477379 352.56017885 C-53.4738461 352.55977237 -41.20294909 352.56934317 -28.93203028 352.5834411 C-16.32538117 352.59781022 -3.71874702 352.604711 8.88791049 352.60384732 C15.96281711 352.60351556 23.03769155 352.60625367 30.11259079 352.61702538 C36.76592041 352.62709053 43.4191937 352.62678955 50.07253075 352.61950874 C52.51381339 352.6184622 54.95510026 352.62082988 57.39637566 352.6268692 C60.73018136 352.63458209 64.06375188 352.62994878 67.39755249 352.62223816 C68.36234886 352.62738172 69.32714522 352.63252529 70.32117784 352.63782471 C78.40130689 352.59655974 85.59695202 351.78201829 92 346.375 C97.2406281 340.89930414 97.332856 335.73175513 97.21372795 328.42523956 C96.90102942 321.0843151 95.77481033 313.83271838 94.72094727 306.56933594 C94.47544626 304.82681126 94.23079088 303.08416728 93.98690796 301.34141541 C93.32829963 296.65296483 92.65775101 291.96629539 91.98470426 287.27989864 C91.28057729 282.36373977 90.58699921 277.44609198 89.89207458 272.52862549 C88.72582509 264.2868646 87.55228579 256.04616907 86.3737793 247.80615234 C85.01053844 238.27421311 83.65649584 228.74100434 82.30782849 219.20699286 C80.87025547 209.0445285 79.42730909 198.88283338 77.98207736 188.72145557 C77.56596925 185.79380034 77.15073102 182.86602271 76.73562813 179.93822479 C76.08489756 175.35104349 75.43047741 170.76440313 74.77314377 166.17816353 C74.5320753 164.49243046 74.29220317 162.80652582 74.05359077 161.12044334 C73.7287696 158.82678355 73.39964737 156.53378255 73.0693512 154.24090576 C72.88591439 152.95567394 72.70247759 151.67044212 72.51348209 150.34626389 C72.16128365 147.45726081 72.16128365 147.45726081 71 145.375 C57.8 145.375 44.6 145.375 31 145.375 C31 158.575 31 171.775 31 185.375 C17.8 185.375 4.6 185.375 -9 185.375 C-9 172.175 -9 158.975 -9 145.375 C-34.08 145.375 -59.16 145.375 -85 145.375 C-85 158.575 -85 171.775 -85 185.375 C-98.2 185.375 -111.4 185.375 -125 185.375 C-125 172.175 -125 158.975 -125 145.375 C-131.24801086 145.35209487 -137.49587715 145.33216661 -143.74389648 145.32006836 C-145.87118014 145.31502702 -147.99846031 145.30819409 -150.12573242 145.29956055 C-153.17627826 145.28748621 -156.22677845 145.28176986 -159.27734375 145.27734375 C-160.23462875 145.27218246 -161.19191376 145.26702118 -162.1782074 145.26170349 C-163.05904495 145.26162796 -163.93988251 145.26155243 -164.84741211 145.26147461 C-165.62684677 145.259254 -166.40628143 145.25703339 -167.20933533 145.25474548 C-169.02366535 145.17928614 -169.02366535 145.17928614 -170 146.375 Z " fill="#FF725E" transform="translate(374,119.625)"/>
<path d="M0 0 C1.36089276 1.13783667 2.71565895 2.28306482 4.0625 3.4375 C4.65160156 3.88351563 5.24070312 4.32953125 5.84765625 4.7890625 C20.21000474 15.97795358 27.99705755 33.92068597 31.0625 51.4375 C31.11878401 53.43670787 31.13960313 55.43898678 31.0625 57.4375 C30.49442627 57.69329834 29.92635254 57.94909668 29.34106445 58.21264648 C17.7986053 63.45009712 7.22741863 68.85438218 -2.9375 76.4375 C-4.92299318 77.79432115 -6.92736578 79.11714675 -8.9375 80.4375 C-8.97190186 79.74301758 -9.00630371 79.04853516 -9.04174805 78.33300781 C-9.96350304 55.48732692 -9.96350304 55.48732692 -21.546875 36.4140625 C-30.90161388 28.67958885 -41.12964566 26.57891312 -52.88671875 27.21972656 C-62.01327297 28.1888797 -70.14806019 33.5131007 -75.9375 40.4375 C-85.84768442 55.69705278 -84.26902877 72.38877677 -84.9375 90.4375 C-63.1575 90.4375 -41.3775 90.4375 -18.9375 90.4375 C-21.31335869 94.00128803 -23.66354773 97.43825917 -26.1875 100.875 C-29.15593261 105.10102664 -31.69915617 109.45011653 -34.125 114 C-34.60598145 114.90093384 -34.60598145 114.90093384 -35.09667969 115.82006836 C-37.60822916 120.62091202 -39.72580508 125.46118644 -41.9375 130.4375 C-56.1275 130.4375 -70.3175 130.4375 -84.9375 130.4375 C-84.9375 143.6375 -84.9375 156.8375 -84.9375 170.4375 C-98.1375 170.4375 -111.3375 170.4375 -124.9375 170.4375 C-124.9375 157.2375 -124.9375 144.0375 -124.9375 130.4375 C-139.1275 130.4375 -153.3175 130.4375 -167.9375 130.4375 C-168.2675 134.3975 -168.5975 138.3575 -168.9375 142.4375 C-169.3133648 145.20719095 -169.71043316 147.94859725 -170.17166138 150.70239258 C-170.29260599 151.44810988 -170.4135506 152.19382719 -170.5381602 152.96214199 C-170.93785313 155.41951602 -171.34413946 157.87574982 -171.75048828 160.33203125 C-172.04196731 162.11547384 -172.33303192 163.89898419 -172.62371826 165.68255615 C-173.41385125 170.52327055 -174.20974709 175.36302166 -175.0066514 180.20262527 C-175.85722925 185.37467361 -176.70233499 190.54761617 -177.54806519 195.72045898 C-179.16619035 205.61254192 -180.78903504 215.50384445 -182.41363418 225.39486599 C-184.20156422 236.28141898 -185.98486193 247.16872848 -187.76744509 258.05615807 C-188.2939295 261.27149245 -188.82056571 264.48680194 -189.34725571 267.70210266 C-190.92749431 277.34913455 -192.50736273 286.99622638 -194.08550525 296.64360142 C-194.96190539 302.00074303 -195.83877794 307.35780725 -196.71582031 312.71484375 C-196.88880536 313.77161001 -197.0617904 314.82837627 -197.24001741 315.91716576 C-199.55731566 330.06932235 -201.8938296 344.21817399 -204.24616432 358.36454773 C-205.4933695 365.86664836 -206.73361865 373.36989394 -207.97192895 380.87346745 C-208.96734737 386.90177372 -209.97162366 392.9285118 -210.98283195 398.95418835 C-211.60196905 402.65702578 -212.21236565 406.36126529 -212.82036257 410.06594658 C-213.10088517 411.76426111 -213.38495913 413.46199385 -213.67303038 415.15904427 C-217.30185627 432.31001718 -217.30185627 432.31001718 -213.3125 448.5625 C-209.07587305 453.99254299 -204.60789858 455.53932196 -197.9375 456.4375 C-194.82680981 456.62362959 -191.71692544 456.69221608 -188.6015625 456.75390625 C-187.28253433 456.7850779 -187.28253433 456.7850779 -185.93685913 456.81687927 C-183.14548069 456.88192963 -180.35401329 456.94105148 -177.5625 457 C-175.66275145 457.04322762 -173.76301169 457.08684323 -171.86328125 457.13085938 C-167.22144386 457.23756501 -162.57951754 457.33895615 -157.9375 457.4375 C-157.62369385 458.49243652 -157.3098877 459.54737305 -156.98657227 460.63427734 C-154.75118131 468.03844289 -152.53332322 475.21505733 -148.875 482.0625 C-148.54951172 482.70316406 -148.22402344 483.34382813 -147.88867188 484.00390625 C-146.3129893 487.05542616 -144.63757914 489.94279625 -142.69140625 492.7734375 C-140.9375 495.4375 -140.9375 495.4375 -140.9375 497.4375 C-149.57902433 497.53076128 -158.22033343 497.60154625 -166.86223888 497.64474869 C-170.87635949 497.66549852 -174.89013224 497.69358078 -178.90405273 497.73925781 C-182.78797568 497.78317179 -186.67156705 497.80673149 -190.55571938 497.81700897 C-192.02709475 497.82431967 -193.49845489 497.83859206 -194.96968651 497.86042023 C-212.74193947 498.11327402 -227.65707798 493.13889816 -240.65625 480.77734375 C-253.1026945 468.01121318 -258.35848745 453.38969222 -258.31064272 435.81168014 C-258.08937505 423.17374024 -255.89900476 410.81492628 -253.84179688 398.37182617 C-253.39817663 395.62107626 -252.9597841 392.86949902 -252.52114868 390.11795044 C-251.57967045 384.22941254 -250.62577436 378.34300032 -249.66300964 372.45790672 C-248.26238341 363.89617026 -246.8812706 355.33137034 -245.50443822 346.76577941 C-243.25769323 332.79160038 -240.99557552 318.81995629 -238.72363281 304.84985352 C-236.53897848 291.41627824 -234.36162263 277.98155471 -232.19433594 264.54516602 C-232.06145737 263.72138296 -231.9285788 262.8975999 -231.7916736 262.04885372 C-231.123828 257.90826177 -230.45611787 253.76764799 -229.78845882 249.62702596 C-221.23019721 196.55427577 -212.60941503 143.49180201 -203.9375 90.4375 C-177.8675 90.4375 -151.7975 90.4375 -124.9375 90.4375 C-124.9375 77.5675 -124.9375 64.6975 -124.9375 51.4375 C-121.07718744 35.99624976 -117.0817925 24.30953088 -106.9375 12.4375 C-105.7928125 10.9215625 -105.7928125 10.9215625 -104.625 9.375 C-78.33543466 -19.3601063 -30.94965322 -23.63047847 0 0 Z " fill="#d78776" transform="translate(257.9375,14.5625)"/>
</svg>
