<?xml version="1.0" encoding="UTF-8"?>
<svg version="1.1" xmlns="http://www.w3.org/2000/svg" width="512" height="512">
<defs>
  <linearGradient id="alienGrad" x1="0%" y1="0%" x2="100%" y2="100%">
    <stop offset="0%"   stop-color="#FFC727"/>
    <stop offset="25%"  stop-color="#455a64"/>
    <stop offset="50%"  stop-color="#263238"/>
    <stop offset="75%"  stop-color="#37474f"/>
    <stop offset="100%" stop-color="#FFC727"/>
  </linearGradient>
</defs>
<path d="M0 0 C4.38118201 2.48326106 7.42338864 5.84677729 9.6875 10.375 C9.79069527 12.19030591 9.82971715 14.00939311 9.83898926 15.8276062 C9.84733292 16.98572815 9.85567657 18.1438501 9.86427307 19.33706665 C9.86845749 20.61399384 9.87264191 21.89092102 9.87695312 23.20654297 C9.88489342 24.55993916 9.89328121 25.91333278 9.90208435 27.26672363 C9.92015992 30.18488702 9.93516903 33.1030447 9.94786072 36.02123642 C9.9680601 40.63481004 9.99571642 45.24832021 10.02453613 49.86184692 C10.08466988 59.65786823 10.13647505 69.45392767 10.1875 79.25 C10.2425731 89.81783987 10.29908807 100.38566048 10.36504889 110.95343888 C10.3933953 115.54019669 10.41699288 120.12694715 10.43697357 124.71374869 C10.45036747 127.56777266 10.4677799 130.42176186 10.48628426 133.27575684 C10.4977333 135.23111342 10.50429888 137.18649668 10.51072693 139.14187622 C10.51907059 140.30563782 10.52741425 141.46939941 10.53601074 142.66842651 C10.54374134 144.18548848 10.54374134 144.18548848 10.55162811 145.73319817 C10.67347031 148.10221616 11.01140619 150.11000688 11.6875 152.375 C12.904375 152.643125 14.12125 152.91125 15.375 153.1875 C16.40173828 153.41373047 16.40173828 153.41373047 17.44921875 153.64453125 C20.20108383 153.31315483 21.82081791 152.41029505 23.69018555 150.35668945 C26.06988629 145.62816291 25.30030637 139.72817006 25.25 134.5625 C25.13525936 117.50144937 25.13525936 117.50144937 31.02880859 110.86450195 C34.97972303 107.20010421 39.29589564 105.36841436 44.69921875 105.37890625 C50.81206835 105.92615183 55.13021188 107.74692606 59.4375 112.25 C62.80305705 116.92438479 63.9318903 120.47713562 63.99047852 126.21923828 C64.01544151 127.94595261 64.01544151 127.94595261 64.04090881 129.70755005 C64.05353004 131.55774246 64.05353004 131.55774246 64.06640625 133.4453125 C64.08340073 134.71849335 64.1003952 135.99167419 64.11790466 137.30343628 C64.16200269 140.67897289 64.19833396 144.05439207 64.23010254 147.43005371 C64.27588471 152.19280381 64.33176237 156.95540956 64.39280701 161.71798706 C64.42477557 164.25204518 64.45166202 166.7861734 64.47303772 169.32034302 C64.48652756 170.46518158 64.5000174 171.61002014 64.51391602 172.78955078 C64.52342789 173.79817169 64.53293976 174.8067926 64.54273987 175.84597778 C64.58410925 178.50065694 64.58410925 178.50065694 65.6875 181.375 C71.0772532 182.57052581 71.0772532 182.57052581 76.125 181.125 C79.49074797 177.35536228 78.82195036 172.80322472 78.828125 168.05078125 C78.84646104 166.36522095 78.86603208 164.67967372 78.88671875 162.99414062 C78.91560611 160.34556119 78.93749809 157.69781913 78.93798828 155.04907227 C78.94134477 152.48639227 78.97602699 149.92562596 79.015625 147.36328125 C79.0085553 146.58277908 79.0014856 145.80227692 78.99420166 144.99812317 C79.12400571 139.06356959 80.9122353 134.96482082 84.6875 130.375 C90.01985851 126.21576036 94.28200914 124.95359075 100.921875 125.03125 C106.93162265 125.77822428 112.52805138 128.71029567 116.625 133.1875 C121.95038156 141.41763514 122.1055149 148.551215 122.05859375 158.140625 C122.07152518 160.14340384 122.08447888 162.14618284 122.09876347 164.14895248 C122.12868004 169.05855804 122.12526527 173.96825267 122.12329102 178.87792969 C122.12324982 181.64531987 122.13379169 184.41231892 122.15504456 187.17962646 C122.17378242 189.77937207 122.17559213 192.37930606 122.15879822 194.97906494 C122.16883377 196.1541864 122.17886932 197.32930786 122.18920898 198.54003906 C122.18904282 199.57292053 122.18887665 200.605802 122.18870544 201.66998291 C122.82139709 205.10113848 123.91899133 206.30419414 126.6875 208.375 C130.28221004 208.62338381 130.28221004 208.62338381 133.6875 207.375 C137.16031555 203.2058217 137.07120019 199.07398228 136.98828125 193.890625 C136.99592639 192.2161419 137.00441682 190.54166248 137.01367188 188.8671875 C137.01146833 186.24937924 137.00007732 183.63231591 136.97241211 181.01464844 C136.82784749 163.42096791 136.82784749 163.42096791 141.96582031 156.91723633 C146.1490573 153.17000036 150.64781373 151.67168164 156.125 150.875 C163.73195442 151.94264272 169.62824449 154.383704 174.53125 160.3984375 C178.15700344 166.59651601 177.98396766 172.72822676 177.97802734 179.69433594 C177.98474457 180.82697372 177.99146179 181.95961151 177.99838257 183.12657166 C178.01737469 186.87088418 178.02128859 190.61501729 178.0234375 194.359375 C178.02986872 196.9756884 178.03659732 199.59200108 178.04360962 202.20831299 C178.05639187 207.69927121 178.0593761 213.19018125 178.05810547 218.68115234 C178.05691027 224.98286884 178.07788989 231.28423939 178.1095928 237.5858686 C178.13917238 243.68767118 178.14607384 249.78931152 178.14488602 255.89118195 C178.14722773 258.46644748 178.1559694 261.04171627 178.17155075 263.61693573 C178.36408919 298.7528115 178.36408919 298.7528115 169.8125 313.9375 C169.28825439 314.92012817 169.28825439 314.92012817 168.75341797 315.92260742 C167.75942104 317.75783628 166.73392625 319.56927665 165.6875 321.375 C165.1925 322.23609375 164.6975 323.0971875 164.1875 323.984375 C152.7913491 342.24411679 134.98356508 354.30785352 114.42456055 359.93994141 C103.97105416 362.29433228 93.27751802 361.82695234 82.6171875 361.80859375 C80.28557179 361.81316277 77.95395742 361.81847047 75.62234497 361.82447815 C70.75582375 361.83337341 65.88946697 361.83102553 61.02294922 361.82104492 C54.80823194 361.80953656 48.59408131 361.82981429 42.3794384 361.85896206 C37.57166993 361.87736219 32.76403647 361.87702435 27.95624161 361.87132454 C25.66546964 361.87117192 23.37468818 361.87716686 21.08395004 361.88961601 C17.87576022 361.90460322 14.66860803 361.89379314 11.46044922 361.87670898 C10.52924255 361.88637695 9.59803589 361.89604492 8.63861084 361.90600586 C-3.21919792 361.77472149 -12.58882482 357.17431262 -20.8533783 348.81678772 C-25.91160903 343.36255261 -29.10812806 337.55389138 -32.33203125 330.88671875 C-32.87550705 329.78890579 -33.41898285 328.69109283 -33.97892761 327.56001282 C-35.70579189 324.06637366 -37.41599639 320.56490545 -39.125 317.0625 C-41.37730657 312.48099767 -43.63588775 307.90259962 -45.89453125 303.32421875 C-46.45194504 302.19152557 -47.00935883 301.0588324 -47.58366394 299.89181519 C-50.61864998 293.74016847 -53.71397659 287.6326268 -56.9453125 281.58203125 C-64.52480561 267.36773981 -71.62441222 252.90118662 -78.82006836 238.49023438 C-80.96922451 234.18614976 -83.12205069 229.88391245 -85.27588749 225.58216858 C-86.94414186 222.24926368 -88.61049963 218.91541343 -90.27627373 215.58126831 C-91.07031001 213.99252988 -91.86493799 212.40408703 -92.66017342 210.81594849 C-93.76244522 208.6139366 -94.86215623 206.41066479 -95.96118164 204.20703125 C-96.28785324 203.55571228 -96.61452484 202.90439331 -96.95109558 202.2333374 C-100.3796371 195.34383863 -101.86105837 188.64009846 -99.62890625 181.05078125 C-96.87903227 175.06039187 -92.46516312 170.8779651 -86.3125 168.375 C-79.93235097 167.69077789 -73.62336709 167.42272682 -68.3125 171.375 C-61.96733094 177.48493941 -58.12767229 184.73909343 -54.125 192.5 C-52.92586227 194.79567543 -51.72412091 197.08999311 -50.51953125 199.3828125 C-49.9985083 200.38973145 -49.47748535 201.39665039 -48.94067383 202.43408203 C-45.71497354 208.95569235 -45.71497354 208.95569235 -39.8125 212.4375 C-36.38154526 212.63874232 -36.38154526 212.63874232 -33.9375 211.125 C-30.61396911 207.54581288 -31.16783276 203.31296913 -31.17446899 198.72758484 C-31.17023707 197.54790161 -31.17023707 197.54790161 -31.16591966 196.3443864 C-31.15756506 193.7005283 -31.15623468 191.05671203 -31.15478516 188.4128418 C-31.15011758 186.52067954 -31.14497411 184.62851841 -31.13938904 182.73635864 C-31.12810222 178.65703626 -31.11967087 174.57772121 -31.11326981 170.49838829 C-31.10259863 164.04852443 -31.08235629 157.59871319 -31.06015015 151.14888 C-30.9981957 132.80639047 -30.94420253 114.46390391 -30.91113281 96.12133789 C-30.89279483 85.9944678 -30.86386961 75.86768572 -30.8231281 65.74088031 C-30.80204514 60.38073032 -30.78659899 55.0206913 -30.78432083 49.66049767 C-30.78217533 44.61831282 -30.76631583 39.57635903 -30.73993111 34.53424454 C-30.73273307 32.68394685 -30.73063958 30.83362118 -30.73403358 28.98331261 C-30.7379282 26.45639006 -30.72347432 23.93020551 -30.70449829 21.40336609 C-30.71002799 20.67193648 -30.71555768 19.94050686 -30.72125494 19.18691272 C-30.64347948 13.18303607 -28.93004359 9.3160523 -25.125 4.75 C-17.64760911 -1.56424119 -9.33698991 -4.18494087 0 0 Z " fill="url(#alienGrad)" transform="translate(254.3125,150.625)"/>
<path d="M0 0 C8.35615954 6.23058636 13.7318576 13.9542872 16.8125 23.875 C17.09867187 24.76058594 17.09867187 24.76058594 17.390625 25.6640625 C19.84413192 38.52225615 17.73612764 51.2546945 10.5625 62.1875 C2.66422064 72.62929306 -7.32798768 78.72668665 -20.37109375 80.65625 C-32.68395935 81.61258908 -42.73053162 78.01026927 -53.1875 71.875 C-53.62916504 72.24149658 -54.07083008 72.60799316 -54.52587891 72.9855957 C-62.09777346 79.26222047 -69.67211819 85.52584274 -77.4375 91.5625 C-81.94420118 95.06764092 -86.34975573 98.66284142 -90.6875 102.375 C-97.36009236 108.08402271 -104.24959295 113.49375657 -111.1875 118.875 C-112.13882812 119.61621094 -113.09015625 120.35742188 -114.0703125 121.12109375 C-116.10755379 122.70809833 -118.14644177 124.29290989 -120.1875 125.875 C-120.00574219 126.40867188 -119.82398438 126.94234375 -119.63671875 127.4921875 C-115.62360614 139.38746487 -113.1875 149.11226367 -113.1875 161.875 C-81.1775 168.475 -49.1675 175.075 -16.1875 181.875 C-14.2075 178.245 -12.2275 174.615 -10.1875 170.875 C-4.24611105 162.63807441 4.71008399 156.70767217 14.8125 154.875 C26.96414407 153.78013552 37.36367298 155.33026233 46.96875 163.18359375 C54.83692621 170.40164523 60.31141297 178.50655627 61.05078125 189.37890625 C61.41576498 202.82689768 58.51972549 212.78044845 49.25 222.9375 C41.24980354 230.78731683 31.35246902 233.17938559 20.5 233.18969727 C9.75763764 232.99803138 1.58498208 229.29832761 -6.1875 221.875 C-10.97005787 216.7401555 -16.1875 209.15240496 -16.1875 201.875 C-17.13332191 201.72974632 -17.13332191 201.72974632 -18.09825134 201.58155823 C-28.29525495 199.95242828 -38.39073219 197.85269459 -48.50390625 195.77734375 C-50.45252226 195.37889647 -52.40116675 194.9805885 -54.34983826 194.58241272 C-58.40872452 193.75254635 -62.467294 192.92115288 -66.52563477 192.08862305 C-71.73036289 191.02103111 -76.93582855 189.95708571 -82.14152622 188.89423275 C-86.15400517 188.07462766 -90.166116 187.25323243 -94.17811394 186.43127632 C-96.09858357 186.03802378 -98.01916242 185.64530419 -99.93985176 185.25312614 C-102.61335111 184.70693241 -105.28635136 184.1583601 -107.95922852 183.60913086 C-108.75245514 183.44755493 -109.54568176 183.285979 -110.36294556 183.11950684 C-113.37129078 182.49924901 -116.27033305 181.84738898 -119.1875 180.875 C-119.373125 181.679375 -119.55875 182.48375 -119.75 183.3125 C-122.33959199 189.73018449 -127.08323409 195.2328487 -132.1875 199.875 C-132.8475 199.875 -133.5075 199.875 -134.1875 199.875 C-134.18670441 199.28777161 -134.18590881 198.70054321 -134.18508911 198.09552002 C-134.1826329 191.92952993 -134.22221457 185.76478269 -134.28515625 179.59912109 C-134.30321586 177.30458359 -134.31090318 175.00993825 -134.30761719 172.71533203 C-134.11945029 152.01518181 -134.11945029 152.01518181 -144.8125 134.9375 C-152.83397441 128.66449229 -162.69169539 125.24482174 -172.8359375 126.09765625 C-183.65721854 127.6587094 -192.39398779 132.22045883 -199.1875 140.875 C-204.9735774 150.00316282 -206.46064712 159.30069797 -206.6015625 169.94140625 C-206.62092865 170.86090561 -206.6402948 171.78040497 -206.6602478 172.72776794 C-206.7194684 175.63092107 -206.76619633 178.5341151 -206.8125 181.4375 C-206.85073285 183.41993805 -206.88978757 185.40236043 -206.9296875 187.38476562 C-207.02512178 192.21471472 -207.10936206 197.04474139 -207.1875 201.875 C-210.70301961 200.2352491 -212.70355327 198.45368195 -215.25 195.5 C-215.92160156 194.72914063 -216.59320313 193.95828125 -217.28515625 193.1640625 C-218.99073561 191.11176372 -220.59551425 189.01547085 -222.1875 186.875 C-237.45206897 194.97215728 -252.71521002 203.07208319 -267.95031738 211.22457886 C-269.71231952 212.16733904 -271.47480689 213.10919217 -273.23730469 214.05102539 C-277.64011363 216.40939099 -282.03316713 218.76256091 -286.33984375 221.29296875 C-289.1875 222.875 -289.1875 222.875 -291.1875 222.875 C-290.8575 223.865 -290.5275 224.855 -290.1875 225.875 C-289.24318554 240.24096423 -291.11472695 251.24022628 -300.1875 262.875 C-308.08834942 271.546664 -317.30494216 277.20973997 -329.16796875 278.2109375 C-343.43162374 278.52050491 -354.2606942 275.57984535 -365.1875 265.875 C-374.96267214 255.38853675 -377.81060749 243.2965451 -377.5 229.33203125 C-376.92481861 217.93625 -371.10277209 208.32944545 -362.9375 200.625 C-353.55377222 192.72125613 -343.19282539 189.34040316 -331.0078125 189.62890625 C-319.07917434 190.6697708 -308.10530319 195.8872234 -300.1875 204.875 C-296.36455236 203.416921 -292.76354152 201.69724407 -289.12890625 199.8203125 C-288.55181412 199.52269516 -287.97472198 199.22507782 -287.38014221 198.91844177 C-285.50198441 197.9483894 -283.62586147 196.9744847 -281.75 196 C-280.78450226 195.49978836 -280.78450226 195.49978836 -279.79949951 194.98947144 C-268.6450304 189.20832869 -257.5966267 183.24758439 -246.58984375 177.18994141 C-240.81825602 174.03081828 -235.00195374 170.95430572 -229.1875 167.875 C-229.20844727 167.2766333 -229.22939453 166.6782666 -229.25097656 166.06176758 C-229.60960476 154.2440604 -229.74748685 143.95448612 -225.1875 132.875 C-224.8575 131.885 -224.5275 130.895 -224.1875 129.875 C-224.97253906 129.1015625 -225.75757813 128.328125 -226.56640625 127.53125 C-227.62774244 126.47930616 -228.68893243 125.4272148 -229.75 124.375 C-230.26369141 123.8696875 -230.77738281 123.364375 -231.30664062 122.84375 C-234.12795611 120.03995822 -236.83174505 117.17598216 -239.43334961 114.16650391 C-245.12091275 107.64032414 -250.99602487 101.30714394 -256.99072266 95.0625 C-258.45747023 93.51848655 -259.90777765 91.95869066 -261.34130859 90.38378906 C-268.63117092 81.65036457 -268.63117092 81.65036457 -278.29483032 76.40270996 C-282.85431688 76.28852726 -286.82819138 77.61967968 -291.1875 78.875 C-301.42220352 78.60186504 -311.47662249 74.62315944 -319.0625 67.6875 C-326.94176311 58.96059 -330.81803951 48.28183253 -330.4921875 36.60546875 C-329.24461998 25.42534447 -324.61337273 15.27405802 -315.9140625 7.96484375 C-305.96526915 1.05501629 -296.23581656 -1.07155686 -284.1875 -0.125 C-272.98595778 2.14539806 -263.61321652 8.37355941 -257.1875 17.875 C-251.85367612 27.94430214 -250.32466097 39.0363209 -252.9765625 50.1953125 C-254.30785561 53.92496571 -255.69313574 57.15921317 -257.94921875 60.42578125 C-258.56216797 61.63814453 -258.56216797 61.63814453 -259.1875 62.875 C-258.09194608 65.720899 -256.55858797 67.78145878 -254.48779297 69.9909668 C-253.9444632 70.57336624 -253.40113342 71.15576569 -252.84133911 71.7558136 C-252.25174408 72.3765123 -251.66214905 72.997211 -251.0546875 73.63671875 C-250.43681366 74.29274582 -249.81893982 74.94877289 -249.18234253 75.62467957 C-241.38955491 83.84741703 -233.31032241 91.78628019 -225.23583984 99.73071289 C-223.23889213 101.69771818 -221.24800809 103.67069808 -219.2578125 105.64453125 C-218.33937057 106.54278374 -218.33937057 106.54278374 -217.40237427 107.45918274 C-215.95915295 108.89362483 -214.56762589 110.37975272 -213.1875 111.875 C-213.1875 112.535 -213.1875 113.195 -213.1875 113.875 C-211.82431641 112.87919922 -211.82431641 112.87919922 -210.43359375 111.86328125 C-195.77654881 101.44517741 -180.89298172 96.24117393 -162.625 98.5 C-152.05046981 100.43200917 -142.76854258 104.42258814 -134.1875 110.875 C-129.25290752 107.73131102 -124.7987625 104.18700344 -120.3125 100.4375 C-118.7959532 99.17922901 -117.27901706 97.92142717 -115.76171875 96.6640625 C-114.61582275 95.71321777 -114.61582275 95.71321777 -113.44677734 94.74316406 C-108.05871664 90.28785387 -102.61586903 85.89945008 -97.18457031 81.49707031 C-95.14837367 79.84322062 -93.11663122 78.18403801 -91.0859375 76.5234375 C-82.89239966 69.8298229 -74.61695125 63.2692584 -66.1875 56.875 C-66.4040625 56.20597656 -66.620625 55.53695312 -66.84375 54.84765625 C-70.55925246 42.03261305 -71.25301654 28.07476415 -65.1875 15.875 C-59.16299451 5.35692217 -50.13153379 -2.74646039 -38.46875 -6.5 C-24.6120562 -9.13937025 -11.94485699 -7.63243883 0 0 Z " fill="url(#alienGrad)" transform="translate(414.1875,7.125)"/>
</svg>
